name GIL12_fast2.mot
datacolumns 153
datarows 4
range 0.69166672 0.71666670
endheader

                time	           pelvis_tx	           pelvis_ty	           pelvis_tz	         pelvis_tilt	         pelvis_list	     pelvis_rotation	       hip_flexion_r	     hip_adduction_r	      hip_rotation_r	        knee_angle_r	       ankle_angle_r	    subtalar_angle_r	         mtp_angle_r	       hip_flexion_l	     hip_adduction_l	      hip_rotation_l	        knee_angle_l	       ankle_angle_l	    subtalar_angle_l	         mtp_angle_l	    lumbar_extension	      lumbar_bending	     lumbar_rotation	     ground_force_vx	     ground_force_vy	     ground_force_vz	     ground_force_px	     ground_force_py	     ground_force_pz	     ground_force_vx	     ground_force_vy	     ground_force_vz	     ground_force_px	     ground_force_py	     ground_force_pz	     ground_torque_x	     ground_torque_y	     ground_torque_z	     ground_torque_x	     ground_torque_y	     ground_torque_z	    ground_marker_px	    ground_marker_py	    ground_marker_pz	    ground_marker_px	    ground_marker_py	    ground_marker_pz	    ground_marker_px	    ground_marker_py	    ground_marker_pz	    ground_marker_px	    ground_marker_py	    ground_marker_pz	    ground_marker_px	    ground_marker_py	    ground_marker_pz	    ground_marker_px	    ground_marker_py	    ground_marker_pz	    ground_marker_px	    ground_marker_py	    ground_marker_pz	    ground_marker_px	    ground_marker_py	    ground_marker_pz	    ground_marker_px	    ground_marker_py	    ground_marker_pz	    ground_marker_px	    ground_marker_py	    ground_marker_pz	    ground_marker_px	    ground_marker_py	    ground_marker_pz	    ground_marker_px	    ground_marker_py	    ground_marker_pz	    ground_marker_px	    ground_marker_py	    ground_marker_pz	    ground_marker_px	    ground_marker_py	    ground_marker_pz	    ground_marker_px	    ground_marker_py	    ground_marker_pz	    ground_marker_px	    ground_marker_py	    ground_marker_pz	    ground_marker_px	    ground_marker_py	    ground_marker_pz	    ground_marker_px	    ground_marker_py	    ground_marker_pz	    ground_marker_px	    ground_marker_py	    ground_marker_pz	    ground_marker_px	    ground_marker_py	    ground_marker_pz	    ground_marker_px	    ground_marker_py	    ground_marker_pz	    ground_marker_px	    ground_marker_py	    ground_marker_pz	    ground_marker_px	    ground_marker_py	    ground_marker_pz	    ground_marker_px	    ground_marker_py	    ground_marker_pz	    ground_marker_px	    ground_marker_py	    ground_marker_pz	    ground_marker_px	    ground_marker_py	    ground_marker_pz	    ground_marker_px	    ground_marker_py	    ground_marker_pz	    ground_marker_px	    ground_marker_py	    ground_marker_pz	    ground_marker_px	    ground_marker_py	    ground_marker_pz	    ground_marker_px	    ground_marker_py	    ground_marker_pz	    ground_marker_px	    ground_marker_py	    ground_marker_pz	    ground_marker_px	    ground_marker_py	    ground_marker_pz	    ground_marker_px	    ground_marker_py	    ground_marker_pz	    ground_marker_px	    ground_marker_py	    ground_marker_pz	    ground_marker_px	    ground_marker_py	    ground_marker_pz	    ground_marker_px	    ground_marker_py	    ground_marker_pz	    ground_marker_px	    ground_marker_py	    ground_marker_pz	
          0.69166672	          1.44585621	          0.70764929	         -0.30055445	          3.12941074	          0.74739951	         -7.99240208	         20.93181229	         -2.73756337	         -6.28049660	        -39.00317764	          1.50056291	          0.00000000	          0.00000000	        -12.52648830	          2.11785913	         -7.84460354	          0.14671834	          4.36073112	          0.00000000	          0.00000000	        -17.38014793	         -5.46049166	          5.27228594	          0.00000000	          0.00000000	          0.00000000	          0.83022040	          0.00000000	         -0.23976935	         -0.38827113	        133.76605242	          8.84737853	          1.40023535	          0.00000000	         -0.37903265	          0.00000000	          0.00000000	          0.00000000	          0.00000000	          0.06808156	          0.00000000	          1.39749169	          0.63471782	         -0.29859513	          1.39207399	          0.64744622	         -0.24829319	          1.40844238	          0.64642709	         -0.36458746	          1.51498270	          0.36391827	         -0.21350966	          1.35728300	          0.34669867	         -0.35781074	          1.44011009	          0.08404654	         -0.21882065	          1.30930340	          0.06091534	         -0.37034139	          1.44585621	          0.70764929	         -0.30055445	          1.43374848	          0.70840311	         -0.21453142	          1.45796394	          0.70689547	         -0.38657752	          1.31080294	          0.72876060	         -0.26538664	          1.31944537	          0.72753364	         -0.35003084	          1.50318539	          0.36425865	         -0.16904944	          1.35722005	          0.34562442	         -0.40579867	          1.52938557	          0.36487320	         -0.25537604	          1.34660172	          0.34830719	         -0.31715569	          1.42525864	          0.08745350	         -0.18898645	          1.29961944	          0.06389517	         -0.40122169	          1.44484925	          0.08783984	         -0.24774173	          1.30829597	          0.05959653	         -0.33673260	          1.39194441	          1.04585552	         -0.32159406	          1.48289692	          0.97956288	         -0.26937544	          1.48530984	          0.97260422	         -0.35761118	          1.46941948	          0.98919791	         -0.30725628	          1.50995910	          0.85389566	         -0.30056602	          1.60226214	          0.49112993	         -0.21851073	          1.43586707	          0.41458136	         -0.45975417	          1.50811052	          0.51548457	         -0.18544951	          1.43512666	          0.47173512	         -0.37907904	          1.53255916	          0.43144152	         -0.18169133	          1.41377687	          0.39004776	         -0.36096936	          1.45101464	          0.17915241	         -0.11169180	          1.41949892	          0.16037366	         -0.34436318	          1.47449350	          0.22254676	         -0.17376783	          1.36315107	          0.21798253	         -0.36254549	          1.51390362	          0.05431131	         -0.19715382	          1.39319801	          0.03668733	         -0.37803936	
          0.70000005	          1.45697618	          0.70649362	         -0.30058241	          3.26258278	          0.51044440	         -7.76932716	         21.34273529	         -2.28363538	         -4.39590693	        -35.39488220	          1.25001729	          0.00000000	          0.00000000	        -14.25957108	          1.99702108	         -7.59975719	          1.20600247	          4.33664417	          0.00000000	          0.00000000	        -17.92618942	         -4.88963890	          5.25079870	          0.00000000	          0.00000000	          0.00000000	          0.83132501	          0.00000000	         -0.24050993	          1.04006987	        140.92833114	          9.08653959	          1.40095520	          0.00000000	         -0.37868683	          0.00000000	          0.00000000	          0.00000000	          0.00000000	          0.02712848	          0.00000000	          1.40879953	          0.63339233	         -0.29798841	          1.40357149	          0.64634699	         -0.24787094	          1.41942155	          0.64495987	         -0.36423320	          1.52980208	          0.36378825	         -0.21479134	          1.36021864	          0.34720576	         -0.35806817	          1.47524023	          0.07975610	         -0.21510884	          1.30971885	          0.06173387	         -0.37027913	          1.45697618	          0.70649362	         -0.30058241	          1.44525671	          0.70751929	         -0.21454427	          1.46869576	          0.70546800	         -0.38662052	          1.32198560	          0.72734678	         -0.26455891	          1.33015263	          0.72599304	         -0.34928954	          1.51968729	          0.36452231	         -0.16992319	          1.36014736	          0.34622630	         -0.40605810	          1.54188716	          0.36450946	         -0.25612217	          1.35004807	          0.34919274	         -0.31742486	          1.46063602	          0.08252798	         -0.18508746	          1.29999244	          0.06477454	         -0.40114012	          1.47915018	          0.08308585	         -0.24388558	          1.30873382	          0.06045559	         -0.33666506	          1.40412450	          1.04433739	         -0.32118452	          1.49477029	          0.97711289	         -0.26934415	          1.49700117	          0.97079206	         -0.35752758	          1.48129392	          0.98715538	         -0.30708492	          1.52101696	          0.85151857	         -0.30144173	          1.61490810	          0.49253732	         -0.22454363	          1.44088840	          0.41386867	         -0.45997730	          1.52203310	          0.51613307	         -0.18801139	          1.44157517	          0.47071576	         -0.37890989	          1.54751587	          0.43244016	         -0.18383196	          1.41820562	          0.38938382	         -0.36107260	          1.48091662	          0.17698570	         -0.10946605	          1.42083728	          0.16040042	         -0.34461895	          1.50032187	          0.22089170	         -0.17255050	          1.36488271	          0.21855624	         -0.36289379	          1.55130374	          0.05532884	         -0.19436117	          1.39343905	          0.03671740	         -0.37809873	
          0.70833337	          1.46809435	          0.70502615	         -0.30063748	          3.42961979	          0.32649297	         -7.44421244	         21.59724808	         -1.96218121	         -2.56991434	        -31.51082420	          0.76891083	          0.00000000	          0.00000000	        -15.96381760	          1.91958141	         -7.25209522	          2.15465593	          4.34892797	          0.00000000	          0.00000000	        -18.46958733	         -4.38016701	          5.14015961	          0.00000000	          0.00000000	          0.00000000	          0.83264783	          0.00000000	         -0.24126785	          2.49671757	        149.09351492	          9.39662008	          1.40163843	          0.00000000	         -0.37834320	          0.00000000	          0.00000000	          0.00000000	          0.00000000	         -0.01546521	          0.00000000	          1.42014599	          0.63173616	         -0.29744583	          1.41518998	          0.64484513	         -0.24746256	          1.43033516	          0.64323378	         -0.36391574	          1.54398978	          0.36315486	         -0.21606317	          1.36346960	          0.34769490	         -0.35828441	          1.51060820	          0.07628753	         -0.21126014	          1.31017554	          0.06255690	         -0.37019995	          1.46809435	          0.70502615	         -0.30063748	          1.45689678	          0.70621753	         -0.21453901	          1.47929180	          0.70383477	         -0.38673595	          1.33317721	          0.72551918	         -0.26358917	          1.34077525	          0.72411579	         -0.34842214	          1.53555453	          0.36433676	         -0.17085862	          1.36339748	          0.34679678	         -0.40627596	          1.55392981	          0.36329463	         -0.25672182	          1.35366774	          0.35009122	         -0.31765503	          1.49622703	          0.07846627	         -0.18108259	          1.30039406	          0.06567372	         -0.40103590	          1.51402605	          0.07913808	         -0.23983327	          1.30930102	          0.06134704	         -0.33656833	          1.41620612	          1.04245985	         -0.32063296	          1.50667202	          0.97424811	         -0.26931840	          1.50870228	          0.96853733	         -0.35744378	          1.49321067	          0.98471010	         -0.30694437	          1.53211498	          0.84873170	         -0.30228847	          1.62699234	          0.49291998	         -0.23046859	          1.44615948	          0.41312581	         -0.46017641	          1.53543484	          0.51597983	         -0.19059928	          1.44831824	          0.46955654	         -0.37863305	          1.56192720	          0.43259516	         -0.18598311	          1.42281902	          0.38863143	         -0.36111209	          1.51045918	          0.17549650	         -0.10722233	          1.42230201	          0.16034897	         -0.34490111	          1.52582276	          0.21961932	         -0.17132078	          1.36679089	          0.21901563	         -0.36315522	          1.58856034	          0.05717060	         -0.19152680	          1.39364362	          0.03674626	         -0.37815154	
          0.71666670	          1.47921550	          0.70327103	         -0.30072331	          3.61957169	          0.19876420	         -7.01887226	         21.71856308	         -1.78384244	         -0.84223932	        -27.41733360	          0.06470037	          0.00000000	          0.00000000	        -17.61861610	          1.87730896	         -6.83594418	          2.97422767	          4.41118479	          0.00000000	          0.00000000	        -18.96400261	         -3.88099980	          4.93705750	          0.00000000	          0.00000000	          0.00000000	          0.83428754	          0.00000000	         -0.24203397	          4.07133323	        158.34079421	          9.75478990	          1.40227710	          0.00000000	         -0.37800803	          0.00000000	          0.00000000	          0.00000000	          0.00000000	         -0.06089987	          0.00000000	          1.43150330	          0.62978417	         -0.29703283	          1.42692256	          0.64297318	         -0.24707797	          1.44117963	          0.64128160	         -0.36364210	          1.55760932	          0.36202568	         -0.21725322	          1.36708236	          0.34813273	         -0.35846910	          1.54600763	          0.07378001	         -0.20741433	          1.31066871	          0.06337719	         -0.37012225	          1.47921550	          0.70327103	         -0.30072331	          1.46867156	          0.70452207	         -0.21451682	          1.48975945	          0.70202005	         -0.38692978	          1.34440756	          0.72332352	         -0.26249155	          1.35134912	          0.72194493	         -0.34743467	          1.55081487	          0.36369160	         -0.17178831	          1.36698723	          0.34730992	         -0.40646195	          1.56578898	          0.36148083	         -0.25751194	          1.35791719	          0.35082173	         -0.31790295	          1.53184509	          0.07538486	         -0.17709778	          1.30082917	          0.06658728	         -0.40093020	          1.54928625	          0.07620439	         -0.23580819	          1.30991995	          0.06228559	         -0.33645993	          1.42814028	          1.04021788	         -0.32003903	          1.51860571	          0.97102046	         -0.26935467	          1.52044582	          0.96595359	         -0.35752654	          1.50517249	          0.98189467	         -0.30682397	          1.54339111	          0.84563273	         -0.30330288	          1.63860166	          0.49230936	         -0.23612018	          1.45163143	          0.41231281	         -0.46038353	          1.54817772	          0.51500410	         -0.19316016	          1.45530653	          0.46830109	         -0.37846929	          1.57578731	          0.43204346	         -0.18827318	          1.42789936	          0.38789210	         -0.36128241	          1.53956556	          0.17467110	         -0.10499807	          1.42390561	          0.16019736	         -0.34519696	          1.55062544	          0.21860595	         -0.17002422	          1.36892986	          0.21939589	         -0.36339363	          1.62548292	          0.05988997	         -0.18873040	          1.39382052	          0.03676873	         -0.37820083	
